<?xml version="1.0" encoding="utf-8"?>
<svg xmlns="http://www.w3.org/2000/svg" viewBox="20 20 140 145" role="img" aria-label="Logo Anestesia Questões">
  <style>
    .st1{fill:#3FA7F0;}
    .st2{fill:#389EEA;}
    .st3{fill:#3995EB;}
    .st4{fill:#156ABF;}
    .st5{fill:#1861BE;}
    .st6{fill:#1354B0;}
    .st7{fill:#0D47A5;}
  </style>
  <g>
    <path class="st1" d="M118.46,127.16c-0.4-0.51-1.05-0.9-1.55-0.9c-1.37,0-2.13-1.23-2.42-3.9c-0.14-1.3-0.47-2.6-0.72-2.89
		c-0.29-0.25-0.51-0.9-0.51-1.37c0-0.51-0.25-1.15-0.54-1.44c-0.29-0.32-0.54-0.94-0.54-1.44c0-0.76-0.18-0.87-1.26-0.87
		c-1.23,0-1.26-0.04-1.26-1.44c0-0.79,0.14-1.44,0.32-1.44c0.22,0,0.4-0.69,0.47-1.52c0.11-1.44,0.18-1.55,1.3-1.66
		c1.01-0.11,1.12-0.22,0.94-0.94s0.65-1.55,6.06-6.2c3.43-2.92,9.88-8.51,14.32-12.41c9.99-8.73,10.39-9.02,12.84-9.02
		c1.37,0,2.02,0.18,2.45,0.65c0.79,0.87,0.76,2.78-0.07,4.58c-0.94,1.98-28.25,42.82-28.75,43
		C119.32,128.02,118.85,127.66,118.46,127.16L118.46,127.16z"/>
  </g>
  <g>
    <path class="st2" d="M103.53,138.92c0-1.23-0.43-1.84-1.3-1.84c-0.9,0-2.31-1.26-2.31-2.06c0-0.25-0.14-0.47-0.29-0.47
		c-0.65,0-1.88-1.37-1.88-2.09c0-0.4-0.14-0.87-0.36-0.97c-0.51-0.29-0.47-4.98,0.04-5.48c0.54-0.54,0.11-1.73-0.97-2.81
		c-0.54-0.54-0.87-1.3-0.87-2.06c-0.04-0.65-0.25-1.59-0.54-2.09c-0.94-1.62-0.61-3.97,0.54-3.97c0.54,0,0.72-0.4,0.94-1.62
		c0.14-1.08,0.4-1.62,0.76-1.62c0.29,0,1.41,0.72,2.53,1.62c1.08,0.9,2.09,1.62,2.24,1.62c0.25,0,6.35-5.01,9.67-7.9
		c1.55-1.41,2.31-1.8,2.24-1.19c-0.11,0.69,0.07,1.19,0.4,0.97c0.22-0.11,0.36,0,0.36,0.32c0,0.29,0.22,0.61,0.47,0.69
		c0.25,0.14,0.22,0.22-0.18,0.22c-0.32,0.04-0.69-0.18-0.79-0.4c-0.14-0.25-0.14-0.11-0.07,0.32c0.14,0.83-0.65,2.27-1.26,2.27
		c-0.22,0-0.29-0.14-0.18-0.32s-0.04-0.4-0.32-0.54c-0.76-0.29-1.01,0.36-0.36,0.97c0.61,0.61,0.72,1.12,0.22,0.79
		c-0.18-0.11-0.43,0.14-0.58,0.54c-0.11,0.4-0.4,0.72-0.58,0.72s-0.32,0.14-0.32,0.32c0,0.43,2.6,0.4,3.17-0.04
		c0.69-0.58,0.54,0.79-0.18,1.62c-0.61,0.69-0.61,0.72,0,0.51c0.69-0.25,0.87,0.32,0.18,0.58c-0.29,0.14-0.25,0.22,0.14,0.22
		c0.43,0.04,0.58,0.29,0.47,1.12c-0.07,0.61,0.07,1.3,0.4,1.59c0.25,0.29,0.51,0.69,0.51,0.9c0,0.18,0.29,0.54,0.65,0.72
		c0.58,0.36,0.58,0.36,0,0.4c-0.79,0-0.83,0.58-0.14,1.3c0.4,0.4,0.58,0.4,0.69,0.04c0.14-0.32,0.22-0.32,0.22,0.04
		c0.04,0.25-0.22,0.72-0.51,1.01c-0.54,0.54-0.36,1.73,0.22,1.37c0.18-0.11,0.32,0.07,0.32,0.36c0,0.69,0.76,0.76,1.41,0.14
		c0.47-0.47,0.72-0.25,0.87,0.69c0,0.18,0.32,0.58,0.65,0.97c0.61,0.65,0.54,0.79-1.55,3.97c-3.54,5.27-5.05,6.89-7.68,8.12
		c-1.88,0.9-2.81,1.12-4.69,1.12c-2.06,0-2.34-0.07-2.34-0.69L103.53,138.92z"/>
    <path class="st2" d="M120.3,126.29c0.11-0.18,0.04-0.43-0.14-0.54s-0.25-0.54-0.14-0.94s0.36-0.61,0.54-0.51
		c0.18,0.11,0.25,0.29,0.14,0.4s-0.04,0.51,0.14,0.83c0.25,0.47,0.22,0.72-0.22,0.87C120.33,126.51,120.19,126.47,120.3,126.29z"/>
    <path class="st2" d="M107.32,89.03c-8.62-20.78-8.51-20.49-9.23-20.49c-0.36,0-0.94,0.4-1.26,0.9c-0.32,0.51-0.72,0.9-0.9,0.9
		c-0.43,0-0.4-1.88,0.04-3.07c0.29-0.79,0-1.73-1.95-6.24c-5.7-13.24-13.71-31.78-14.39-33.33c-0.69-1.59-0.69-1.73-0.14-2.6
		c0.36-0.51,1.26-1.26,2.02-1.66c1.33-0.65,2.27-0.72,15.98-0.79c14.47-0.11,14.54-0.11,16.2,0.72c1.23,0.58,1.91,1.26,2.6,2.53
		c0.51,0.94,4.44,10.14,8.73,20.45c4.33,10.32,8.98,21.5,10.39,24.85l2.56,6.13l-3.03,2.81c-1.7,1.59-3.54,3.1-4.15,3.43
		c-0.58,0.32-1.98,1.37-3.07,2.31c-11.15,9.85-15.22,13.31-15.73,13.31c-0.22,0-2.31-4.58-4.65-10.17L107.32,89.03z"/>
  </g>
  <g>
    <path class="st3" d="M99.56,138.99c-0.9-0.29-4.69-2.42-8.48-4.73c-3.75-2.27-8.84-5.34-11.22-6.78c-2.42-1.48-4.73-2.67-5.16-2.67
		c-0.4,0-0.9,0.32-1.12,0.72c-0.51,0.97-1.08,0.9-1.08-0.07c-0.04-0.69-1.55-1.73-8.95-6.06l-8.91-5.27l-0.11-1.33
		c-0.11-1.05,0.04-1.41,0.54-1.55c1.66-0.61,21.79-9.02,24.64-10.32c1.3-0.58,2.85-1.15,3.5-1.26c1.01-0.18,1.12-0.11,0.97,0.51
		c-0.14,0.54,1.33,1.91,7.4,6.75c4.18,3.32,7.61,6.2,7.61,6.38c0,0.43-0.51,0.4-0.94-0.04c-0.25-0.25-0.36-0.14-0.32,0.43
		c0.04,0.47-0.11,0.94-0.32,1.08c-0.25,0.18-0.25,0.29,0.07,0.29c0.36,0,0.36,0.11-0.07,0.54c-0.29,0.29-0.79,0.54-1.15,0.54
		c-0.54,0-0.51,0.11,0.14,0.69c0.43,0.36,0.79,0.87,0.79,1.12c0,0.29-0.29,0.14-0.69-0.29c-0.9-1.05-1.19-1.01-0.69,0.11
		c0.22,0.51,0.54,0.9,0.72,0.9s0.22,0.18,0.11,0.36c-0.11,0.22-0.07,0.36,0.11,0.36c0.65,0,0.76,1.05,0.22,1.62
		c-0.51,0.47-0.51,0.54,0.07,0.54c0.36,0,0.51,0.11,0.4,0.22c-0.14,0.14,0.11,0.54,0.51,0.9c0.4,0.32,0.72,0.72,0.72,0.83
		c-0.11,0.72,0,0.97,0.29,0.79c0.43-0.29,0.69,0.87,0.36,1.95c-0.14,0.51-0.25,0.65-0.29,0.36c-0.04-0.36-0.22-0.29-0.61,0.29
		c-0.65,0.94-0.4,1.59,0.51,1.3c0.43-0.14,0.36,0.04-0.25,0.54c-0.54,0.51-0.76,0.97-0.61,1.37c0.22,0.54,0.29,0.54,0.58,0.11
		c0.25-0.43,0.36-0.4,0.58,0.14c0.14,0.36,0.07,0.94-0.14,1.3c-0.29,0.47-0.22,0.72,0.32,1.12c0.4,0.25,0.97,0.51,1.3,0.51
		c0.32,0,0.65,0.22,0.76,0.51s0,0.4-0.25,0.25c-0.54-0.36-0.47,0.18,0.11,0.97c0.29,0.36,0.94,0.72,1.48,0.83
		c1.37,0.25,2.02,1.01,1.84,2.13c-0.14,0.76-0.04,0.9,0.72,0.9c0.51,0,1.48-0.25,2.2-0.54c0.69-0.29,1.62-0.54,2.06-0.54
		c0.72,0.04,0.69,0.07-0.25,0.9c-0.94,0.83-1.3,0.9-4.69,0.9c-2.38-0.04-4.26-0.25-5.3-0.61H99.56z"/>
  </g>
  <g>
    <path class="st4" d="M77.85,97.33c-0.36-0.43-0.65-0.94-0.65-1.08s-0.22-0.29-0.51-0.29s-0.61-0.29-0.76-0.69
		c-0.32-1.12-1.48-2.2-2.31-2.2c-0.4,0-0.76-0.14-0.76-0.32c0-0.4-2.02-1.48-2.74-1.48c-0.25,0-0.58-0.32-0.69-0.72
		c-0.14-0.47-0.54-0.72-1.08-0.72s-0.94-0.25-1.08-0.72c-0.11-0.4-0.54-0.72-0.9-0.72s-0.72-0.18-0.79-0.43
		c-0.11-0.25-1.55-0.47-4-0.58c-2.13-0.07-3.86-0.32-3.86-0.47c0-0.18-0.25-0.32-0.54-0.32s-0.54-0.29-0.54-0.65
		c0-0.32-0.4-0.94-0.9-1.3c-1.08-0.83-1.12-1.44-0.22-3.5c0.94-2.2,20.71-48.48,22.37-52.41c0.76-1.8,1.55-3.32,1.77-3.39
		c0.43-0.14,0.36-0.36,7.47,16.16c3.03,7.03,6.71,15.48,8.12,18.76l2.6,5.95l-0.65,1.8c-0.32,1.01-2.13,5.56-4,10.1
		c-1.88,4.58-4.47,10.93-5.77,14.14l-2.38,5.84h-3.28c-2.92,0-3.35-0.07-3.9-0.76L77.85,97.33z"/>
  </g>
  <g>
    <path class="st5" d="M169.36,163.02c-6.38-0.51-21.54-2.16-25.07-2.71c-3.86-0.61-5.92-1.59-7.43-3.57
		c-0.54-0.72-1.84-3.35-2.92-5.88c-5.41-12.55-8.44-20.13-8.3-20.63c0.25-1.05,19.08-29.69,20.56-31.31
		c1.41-1.55,1.8-1.12,4.18,4.51c18.33,43.25,24.96,59.27,24.71,59.7c-0.22,0.32-0.58,0.32-5.74-0.11L169.36,163.02z"/>
    <path class="st5" d="M61.32,108.94c-0.29-0.4-0.69-0.72-0.9-0.72c-0.18,0-1.66-0.65-3.25-1.44s-3.39-1.44-4.04-1.44
		s-1.19-0.14-1.19-0.36c0-0.18-0.18-0.36-0.36-0.36c-0.22,0-0.79-0.4-1.3-0.9c-0.51-0.51-1.05-0.9-1.23-0.9
		c-0.65,0-1.44-1.15-1.44-2.13c0-0.54,0.79-2.85,1.77-5.12c0.94-2.27,2.67-6.31,3.82-8.98c1.15-2.67,2.31-5.41,2.6-6.06
		c0.25-0.65,0.65-1.08,0.83-0.97c0.22,0.14,0.14,0.65-0.18,1.3c-0.43,0.79-0.47,1.05-0.11,1.05s0.36,0.07-0.04,0.32
		c-0.58,0.36-0.22,1.12,0.54,1.12c0.29,0,0.43,0.18,0.32,0.36s0.04,0.36,0.32,0.36c0.76,0,1.12,0.76,0.54,1.15
		c-0.36,0.25-0.29,0.29,0.32,0.18c0.65-0.14,0.79-0.07,0.65,0.32c-0.22,0.54,0.87,0.72,1.37,0.25c0.36-0.4,1.3-0.43,1.3-0.07
		c0,0.18,0.18,0.32,0.4,0.32c0.18,0,0.25-0.14,0.14-0.36c-0.11-0.18-0.04-0.36,0.14-0.36c0.22,0,0.4,0.18,0.4,0.36
		c0,0.22,0.25,0.36,0.58,0.36c0.29,0,0.43-0.14,0.32-0.36c-0.36-0.58,0.4-0.43,0.9,0.18c0.25,0.32,0.76,0.47,1.12,0.36
		c0.43-0.14,0.76-0.04,0.9,0.32c0.11,0.29,0.43,0.43,0.72,0.32s0.65,0.18,0.9,0.69c0.32,0.72,0.58,0.83,1.48,0.72
		c0.72-0.11,1.05-0.04,0.87,0.22c-0.29,0.51,0.14,1.55,0.54,1.3c0.18-0.11,0.25-0.36,0.14-0.54c-0.14-0.18,0.04-0.32,0.36-0.32
		s0.47,0.18,0.36,0.36c-0.32,0.54,0.51,1.44,1.12,1.19c0.29-0.11,0.51,0,0.51,0.25c0,0.22,0.18,0.29,0.43,0.14
		c0.29-0.18,0.32-0.07,0.18,0.32c-0.11,0.36-0.07,0.61,0.11,0.61c0.22,0,0.36-0.14,0.36-0.36c0-0.65,0.65-0.4,0.9,0.36
		c0.14,0.43,0.54,0.72,1.01,0.72c0.65,0,0.69,0.07,0.25,0.36c-0.36,0.22-0.4,0.36-0.07,0.36c0.22,0,0.4,0.11,0.4,0.29
		c-0.11,0.72,0.07,1.15,0.58,1.15c0.29,0,0.54,0.14,0.54,0.29c0,0.47,1.3,1.88,1.7,1.88c0.22,0,0.65-0.32,1.01-0.72
		s0.9-0.72,1.19-0.72c0.32,0,0.43,0.11,0.32,0.25c-0.36,0.32,0.47,1.19,1.15,1.19c0.51,0,0.51-0.07,0.04-0.36
		c-0.43-0.29-0.36-0.36,0.36-0.4c0.9-0.04,0.9-0.04,0.07-0.25c-0.79-0.25-0.79-0.25-0.07-0.72c0.51-0.29,0.72-0.32,0.72-0.04
		c0,0.22,0.22,0.32,0.51,0.22c0.4-0.14,0.47,0.04,0.36,0.76c-0.25,1.41-1.84,4.76-2.27,4.76c-0.18,0-1.37,0.47-2.63,1.05
		c-4.51,2.06-17.93,7.61-18.4,7.61c-0.29,0-0.72-0.32-1.01-0.72L61.32,108.94z"/>
  </g>
  <g>
    <path class="st6" d="M54.72,114.46c-0.14-0.11-0.97-0.36-1.88-0.54c-0.9-0.14-2.38-0.47-3.32-0.65c-0.97-0.22-2.34-0.47-3.1-0.58
		c-0.72-0.14-1.33-0.4-1.33-0.54c0-0.18-0.29-0.32-0.69-0.32c-1.8,0-1.66-0.72,2.13-9.63c2.02-4.73,3.82-8.73,4-8.91
		c0.72-0.79,0.54,0.14-0.61,2.99c-1.52,3.79-1.55,4.83-0.14,5.16c0.29,0.07,0.83,0.43,1.19,0.79c0.32,0.36,0.61,0.51,0.61,0.25
		c0-0.32,0.14-0.29,0.51,0.04c0.36,0.32,0.4,0.54,0.07,0.72c-0.25,0.18-0.18,0.29,0.25,0.29c0.32,0,0.61,0.18,0.61,0.4
		s0.43,0.32,1.01,0.29c0.54-0.07,1.15,0,1.41,0.14c0.22,0.14,0.69,0.14,1.01,0.04c0.36-0.14,0.54-0.07,0.47,0.22
		c-0.07,0.25,0.11,0.54,0.36,0.61c0.22,0.11,0.43,0,0.43-0.22s0.18-0.4,0.4-0.4s0.32,0.25,0.18,0.54c-0.18,0.54,0.18,0.69,1.23,0.54
		c0.29-0.04,0.43,0.04,0.29,0.22c-0.36,0.32,1.05,1.33,1.48,1.08c0.18-0.11,0.61,0.22,0.97,0.69c0.36,0.51,0.9,0.9,1.23,0.9
		c0.43,0,0.43,0.07,0,0.47c-0.47,0.43-4.94,2.42-7.4,3.28c-0.69,0.25-0.69,0.32,0.29,1.08c0.54,0.43,0.97,0.9,0.97,1.05
		C57.35,114.78,55.04,114.78,54.72,114.46z"/>
  </g>
  <g>
    <path class="st7" d="M21.43,162.94c-0.11-0.29,0.18-1.37,0.58-2.42c0.83-2.13,11.87-28.43,15.15-36.07
		c1.15-2.67,3.17-7.5,4.51-10.75c1.33-3.21,2.6-5.84,2.78-5.84s0.25-0.14,0.14-0.32c-0.25-0.4,1.15-3.64,1.59-3.64
		c0.43,0-0.32,2.24-0.94,2.74c-0.29,0.22-0.4,0.47-0.29,0.58s-0.04,0.79-0.32,1.48c-0.58,1.37-0.29,2.06,0.9,2.06
		c0.36,0,0.65,0.18,0.65,0.36c0,0.22,0.32,0.36,0.72,0.36c0.79,0,3.46,0.58,5.37,1.15c0.94,0.29,1.26,0.25,1.52-0.11
		c0.18-0.29,0.32-0.32,0.32-0.14c0,0.22,0.61,0.61,1.37,0.87c1.77,0.65,18.47,10.53,18.47,10.97c0,0.29-7.5,18.58-11.29,27.45
		c-2.81,6.64-4.55,8.12-10.17,8.84c-7.21,0.9-27.78,2.92-29.69,2.92c-0.65,0-1.26-0.22-1.37-0.47L21.43,162.94z"/>
  </g>
</svg>
